<?xml version="1.0" encoding="utf-8"?>
<!-- Generator: Adobe Illustrator 24.0.1, SVG Export Plug-In . SVG Version: 6.00 Build 0)  -->
<svg version="1.1" id="Warstwa_1" xmlns="http://www.w3.org/2000/svg" xmlns:xlink="http://www.w3.org/1999/xlink" x="0px" y="0px"
	 viewBox="0 0 55.1 78.1" style="enable-background:new 0 0 55.1 78.1;" xml:space="preserve">
<style type="text/css">
	.st0{fill:#92D35E;}
</style>
<path class="st0" d="M-0.1,21.3c1.8,0,3.5,0,5.3,0c0-0.2,0-0.5,0-0.7c0-4.8,0-9.5,0-14.3c0-1.6,0.4-3.1,1.3-4.5C7.4,0.7,8.5,0,9.9,0
	c4.5,0,8.9,0,13.4,0c2,0,3.3,0.9,4.2,2.7c0.6,1.2,0.8,2.5,0.8,3.8c0,4.7,0,9.4,0,14.1c0,0.2,0,0.4,0,0.7c1.8,0,3.5,0,5.3,0
	c0,0.2,0,0.3,0,0.5c0,5.5,0,11,0,16.5c0,4.7-1.1,9.2-3.2,13.5c-1.3,2.5-2.9,4.7-5.1,6.5c-1.4,1.2-3,2.2-4.8,2.6
	c-0.8,0.2-1.5,0.3-2.3,0.5c-0.4,0.1-0.6,0.2-0.6,0.6c0,3.1,0,6.2,0,9.3c0,1.4,0.5,2.7,1.7,3.6c0.9,0.7,2.3,0.6,3.1-0.2
	c1-1,1.4-2.2,1.4-3.6c0-1.6,0-3.1,0.1-4.7c0.2-1.9,1-3.6,2.4-5c1.1-1,2.7-1.4,4.2-0.9c2.3,0.9,3.3,2.9,3.8,5.2
	c0.3,1.4,0.2,2.8,0.2,4.3c0,1.5,0.3,2.9,1.3,4.1c1.2,1.6,3.3,1.6,4.6,0c0.8-1,1.2-2.1,1.2-3.3c0-4.4,0-8.7,0-13.1
	c-0.6,0-1.1,0-1.8,0c0-1,0-2,0-3c0-0.5,0-0.9,0-1.4c0.1-0.9-0.1-1.5-0.9-2c-1.4-1-2.3-2.5-2.8-4.1c-1.2-3.4-1-6.8,0.5-10.2
	c0.6-1.3,1.5-2.4,2.6-3.2c1.5-1.1,3.3-1.4,5-0.8c1.6,0.6,2.8,1.8,3.7,3.3c2.1,3.9,2.2,7.8,0.5,11.9c-0.6,1.5-1.7,2.7-3,3.7
	c-0.3,0.2-0.3,0.4-0.3,0.6c0,1.7,0,3.5,0,5.2c-0.6,0-1.1,0-1.8,0c0,0.3,0,0.5,0,0.7c0,3.9,0,7.9,0,11.8c0,2-0.5,3.9-1.6,5.5
	c-0.7,0.9-1.5,1.7-2.7,1.9c-1.9,0.4-3.6-0.3-4.7-2c-1.1-1.6-1.6-3.3-1.6-5.2c0-1.3,0-2.6-0.1-3.9c-0.2-1.6-0.9-2.8-2.3-3.6
	c-0.8-0.4-2-0.3-2.7,0.3c-1.4,1.1-1.9,2.6-1.9,4.3c-0.1,1.6,0,3.1-0.1,4.7c-0.1,1.6-0.8,3.1-1.9,4.3c-0.9,0.9-1.9,1.5-3.2,1.3
	c-1.1-0.2-2.1-0.7-2.8-1.6c-1.2-1.5-1.7-3.3-1.7-5.2c0-3,0-6,0-9c0-0.5-0.2-0.7-0.7-0.7c-1.4-0.1-2.8-0.6-4.1-1.2
	c-1.9-0.9-3.6-2.3-5-3.9c-1.7-1.9-3-4-3.9-6.4c-1.6-3.7-2.3-7.6-2.4-11.6c0-5.5,0-10.9,0-16.4C-0.1,21.7-0.1,21.5-0.1,21.3z
	 M26.5,37.6c0-9.2,0-18.4,0-27.5c-6.5,0-13,0-19.5,0c0,9.2,0,18.4,0,27.5C13.5,37.6,20,37.6,26.5,37.6z M28.4,28.9
	c0,0.3,0,0.5,0,0.7c0,4.7,0,9.5,0,14.2c0,1.5-0.3,3-1.1,4.3c-0.9,1.4-2,2.2-3.7,2.2c-4.5,0-9,0-13.6,0c-1.4,0-2.5-0.6-3.3-1.7
	c-1.1-1.4-1.5-3-1.5-4.8c0-4.8,0-9.5,0-14.3c0-0.2,0-0.4,0-0.7c-1.2,0-2.4,0-3.6,0c0,0.2,0,0.3,0,0.4c0,2.9,0,5.7,0,8.6
	c0,3.9,0.7,7.6,2.3,11.2c1.7,3.7,4,6.8,7.7,8.7c1.5,0.8,3.1,1.2,4.8,1.3c1.1,0.1,2.2-0.3,3.3-0.5c1.7-0.4,3.1-1.3,4.4-2.3
	c1.8-1.4,3.2-3.2,4.3-5.2c2.2-4,3.2-8.3,3.3-12.8c0-3,0-5.9,0-8.9c0-0.1,0-0.3,0-0.4C30.7,28.9,29.6,28.9,28.4,28.9z M26.7,40.3
	c-6.7,0-13.2,0-19.7,0c0,0.6,0,1.1,0,1.6c0,1,0,2.1,0.1,3.1c0.3,1.5,1.1,2.8,3.2,2.7c4.4-0.1,8.7-0.1,13.1,0c1.7,0,2.7-0.9,2.9-2.3
	C26.6,43.8,26.6,42,26.7,40.3z M39.9,49.2c0-1.1,0.2-2.1,0.8-2.9c1-1.5,2.8-1.5,3.8,0c0.6,0.8,0.7,1.8,0.9,2.8
	c0.3-0.3,0.6-0.5,0.8-0.8c0.2-0.3,0.5-0.6,0.6-1c1.6-3.4,1.6-6.7-0.4-9.9c-0.7-1.1-1.6-1.9-2.9-2.2c-1.8-0.4-3.2,0.4-4.4,1.7
	c-1.1,1.3-1.7,3-1.8,4.7C37.1,44.5,37.7,47.1,39.9,49.2z M26.6,7.6c0-1.1,0.1-2.2-0.4-3.2c-0.4-1-1.4-1.9-2.7-1.8
	c-4.5,0-9.1,0-13.6,0c-0.9,0-1.5,0.4-2,1C7,4.7,6.9,6.1,7,7.6C13.5,7.6,20,7.6,26.6,7.6z M43.5,55.2c0-0.1,0-0.1,0-0.2
	c0-2,0-4.1,0-6.1c0-0.3-0.1-0.6-0.3-0.8c-0.3-0.5-0.7-0.6-1.1-0.2c-0.2,0.3-0.4,0.8-0.4,1.1c0,1.9,0,3.8,0,5.7c0,0.1,0,0.2,0,0.4
	C42.3,55.2,42.9,55.2,43.5,55.2z M1.7,23.9c0,0.9,0,1.6,0,2.4c1.2,0,2.3,0,3.5,0c0-0.8,0-1.6,0-2.4C4,23.9,2.9,23.9,1.7,23.9z
	 M28.4,26.4c1.2,0,2.3,0,3.5,0c0-0.8,0-1.6,0-2.4c-1.2,0-2.3,0-3.5,0C28.4,24.8,28.4,25.6,28.4,26.4z"/>
<path class="st0" d="M42.6,30.5c-0.9-1-1.7-2-2.5-3c-2-2.4-4-4.8-6-7.2c-0.8-1-1.6-2-2.3-3.1c-1-1.5-1.4-3.3-1.6-5.1
	c-0.2-2.7,0-5.4,1.3-7.9c0.8-1.6,2-3,3.7-3.8c1.2-0.5,2.4-0.6,3.7-0.2c1.5,0.5,2.6,1.4,3.5,2.6c0.1,0.1,0.1,0.2,0.2,0.2
	c0,0,0.1,0,0.1,0.1c0.2-0.3,0.5-0.6,0.7-0.9c1-1.3,2.3-2,3.8-2.3c1.1-0.2,2.1,0,3,0.5c3.4,1.9,4.5,5.1,4.8,8.7
	c0.2,2.2,0,4.4-0.8,6.5c-0.6,1.5-1.6,2.8-2.6,4.1c-1.2,1.4-2.4,2.8-3.5,4.2C46.2,26.2,44.5,28.4,42.6,30.5z M31.9,11.3
	c0.1,1.7,0.4,3.3,1.3,4.7c0.8,1.2,1.8,2.3,2.7,3.4c2.1,2.6,4.2,5.1,6.4,7.7c0.2,0.2,0.3,0.3,0.5,0c1.5-1.8,2.9-3.6,4.4-5.3
	c1.2-1.4,2.3-2.8,3.5-4.1c1.2-1.4,2.1-3,2.3-4.9c-1.7,0-3.5,0-5.2,0c-0.1,0-0.3,0.2-0.3,0.4c-0.3,1.4-0.7,2.8-1,4.1
	c-0.4,1.6-0.8,3.2-1.1,4.8c0,0-0.1,0-0.1,0c-1-2.7-1.9-5.4-2.9-8.2c-0.9,1.7-1.7,3.2-2.6,4.8c-0.1-0.2-0.2-0.2-0.2-0.3
	c-0.9-2.2-1.9-4.4-2.8-6.6c-0.1-0.1-0.2-0.3-0.3-0.3C35,11.3,33.5,11.3,31.9,11.3z M42.8,9c0.8,2.2,1.6,4.4,2.4,6.6
	c0.5-1.9,0.9-3.7,1.3-5.6c2.3,0,4.6,0,6.9,0c-0.3-3-1-5.6-3.7-7.1c-0.7-0.4-1.5-0.6-2.3-0.4c-1.5,0.4-2.6,1.2-3.4,2.5
	c-0.4,0.6-0.8,1.2-1.3,1.8c-0.7-0.9-1.3-1.8-1.9-2.6c-0.9-1.1-2.1-1.8-3.6-1.7c-0.7,0.1-1.5,0.3-2.1,0.8c-1.8,1.3-2.7,3.2-3,5.5
	c1.9,0,3.8,0,5.7,0c0.8,1.8,1.5,3.5,2.3,5.3C41,12.3,41.8,10.7,42.8,9z"/>
<path class="st0" d="M13.8,23.5c-0.8-1.1-1.2-2.3-1.4-3.6c-0.2-2.1,0.2-4,1.4-5.7c1.1-1.4,2.3-1.9,4.1-1.4c1.1,0.3,1.8,1.2,2.4,2.3
	c1.3,2.7,1.2,5.4-0.3,8.1c-0.1,0.1-0.1,0.2-0.1,0.3c4,2.9,5,7,4.9,11.7c-5.4,0-10.7,0-16,0C8.5,30.8,10,25.8,13.8,23.5z M10.6,32.7
	c4.1,0,8.2,0,12.3,0c0-0.1,0-0.3,0-0.4c-0.3-2.1-1-4-2.5-5.6c-0.7-0.7-1.6-1.3-2.6-1.5c-2-0.4-3.6,0.3-4.9,1.8
	C11.5,28.7,10.9,30.6,10.6,32.7z M19.5,19c0-1.3-0.3-2.4-1.1-3.2c-1-1-2.2-1-3.1,0c-1.5,1.6-1.6,4.4-0.1,6c0.8,0.9,1.7,1.3,2.9,0.4
	C19.1,21.3,19.4,20.2,19.5,19z"/>
<path class="st0" d="M13.3,45.2c0-0.8,0-1.6,0-2.4c2.4,0,4.7,0,7.1,0c0,0.8,0,1.6,0,2.4C18,45.2,15.6,45.2,13.3,45.2z"/>
</svg>
