<?xml version="1.0" encoding="utf-8"?>
<!-- Generator: Adobe Illustrator 24.0.1, SVG Export Plug-In . SVG Version: 6.00 Build 0)  -->
<svg version="1.1" id="Warstwa_1" xmlns="http://www.w3.org/2000/svg" xmlns:xlink="http://www.w3.org/1999/xlink" x="0px" y="0px"
	 viewBox="0 0 55.1 78.1" style="enable-background:new 0 0 55.1 78.1;" xml:space="preserve">
<style type="text/css">
	.st0{fill:#4B4B4B;}
</style>
<path class="st0" d="M55.1,54.3c0,0.5,0,1,0,1.5c-0.1,0.2-0.3,0.4-0.4,0.6c-2.2,6.4-2.3,12.7,0.4,19c0,0.9,0,1.8,0,2.7
	c-16.1,0-32.1,0-48.2,0c0-0.1-0.1-0.3-0.2-0.3c-3-0.9-4.3-3.3-5.3-5.8c-0.7-1.7-1-3.5-1.5-5.3c0-1.1,0-2.1,0-3.2
	c0.6-1.9,1-4,1.9-5.8c1.5-3.1,3.8-5.2,7.6-4.9c0.8,0.1,1.6,0,2.3,0c0.1-0.5,0.2-0.8,0.2-1.3c4.7,0,9.4,0,14.2,0
	c0-0.3,0.1-0.5,0.1-0.7c0-12.8,0-25.7,0-38.5c0-0.3-0.2-0.7-0.4-1c-0.8-1.1-1.6-2.1-2.5-3.3c-2.6,0-5.6,0-8.5,0
	c-0.1,0.7-0.1,1.3-0.2,1.9c-0.9,0-1.7,0-2.7,0C12,9.2,12,8.6,11.9,8c-0.8,0-1.6-0.1-2.4-0.1c0-1.3,0-2.4,0-3.7c0.5,0,1,0,1.4,0
	c3.8,0,7.7,0,11.5,0c0.8,0,1.3-0.2,1.6-1c0.5-1.4,1.5-2.3,2.8-3.1c0.6,0,1.2,0,1.7,0c1.4,0.6,2.4,1.6,2.9,2.9c0.4,1,0.9,1.2,1.8,1.2
	c3.8,0,7.7,0,11.5,0c0.4,0,0.9,0.1,1.2,0.1c0,1.3,0,2.5,0,3.8c-1,0-1.8,0-2.7,0c-0.1,0.7-0.1,1.3-0.2,1.9c-0.9,0-1.8,0-2.7,0
	c0-0.7,0-1.3,0-2c-2.8,0-5.5,0-8.1,0c-0.2,0-0.5,0.4-0.7,0.6c-0.5,0.7-0.9,1.6-1.5,2.2c-0.6,0.6-0.9,1.1-0.9,2c0,12.5,0,24.9,0,37.4
	c0,0.4,0.1,0.9,0.1,1.4c4.8,0,9.5,0,14.2,0c0.1,0.5,0.1,0.8,0.2,1.2c2.9,0,5.8,0.1,8.7,0C53.8,52.7,54.6,53.1,55.1,54.3z M50.5,71.4
	c-4.4,0-8.7,0-13,0c-0.8,0-1.5,0-1.5-1.1c0-1.1,0.8-1,1.5-1c3.8,0,7.5,0,11.3,0c0.4,0,0.9,0,1.4,0c-0.1-1-0.1-1.9-0.1-2.8
	c-4.2,0-8.2,0-12.3,0c-0.9,0-2,0.2-2-1.1c-0.1-1.6,1.2-1.2,2-1.2c3.6,0,7.3,0,10.9,0c0.4,0,0.9,0,1.3-0.1c0-0.3,0.1-0.5,0.1-0.7
	c0.1-1.8,0.1-1.8-1.7-1.8c-2.6,0-5.1,0-7.7,0c-1,0-1.6-0.8-1-1.6c0.2-0.3,0.8-0.5,1.3-0.5c3.2,0,6.4,0,9.5,0
	c0.2-0.9,0.3-1.6,0.5-2.5c-0.6,0-1,0-1.5,0c-13.5,0-27,0-40.6,0c-2.3,0-3.6,1.1-4.6,2.8c-2,3.6-1.8,7.3,0,10.9c1,2,2.4,3.2,5,3.1
	c13.3-0.1,26.6-0.1,39.9-0.1c0.5,0,1,0,1.6,0C50.9,72.9,50.7,72.2,50.5,71.4z M29.6,5.9c0-1.6-0.8-2.6-2.1-2.5
	c-1,0.1-1.8,1.3-1.7,2.6c0.1,1.3,1.1,2.7,2,2.6C28.7,8.6,29.6,7.2,29.6,5.9z"/>
<path class="st0" d="M13.2,44.7c-4.9,0.2-9.2-3.4-9.8-8c-0.1-1,0-2.2,0.4-3.2c2.8-6.9,5.7-13.7,8.6-20.5c0.1-0.2,0.2-0.5,0.3-0.7
	c0.4-0.9,1-0.8,1.3,0c0.7,1.6,1.4,3.3,2.1,5c2.2,5.4,4.4,10.8,6.7,16.2c1.2,2.8,0.1,5.2-1.4,7.3C19.4,43.5,16.6,44.7,13.2,44.7z
	 M12.5,33.8c0-5.5,0-10.8,0-16.2c-0.1,0-0.1,0-0.2-0.1C10.1,23,7.8,28.3,5.5,33.8C7.9,33.8,10.1,33.8,12.5,33.8z M14.4,17.6
	c0,0-0.1,0-0.1,0.1c0,5.4,0,10.8,0,16.2c2.2,0,4.4,0,6.8,0C18.8,28.3,16.6,23,14.4,17.6z"/>
<path class="st0" d="M41.6,44.7c-4.9,0.2-9.2-3.6-9.7-8.5c-0.1-0.9,0.1-1.9,0.4-2.7c2.8-6.8,5.7-13.6,8.6-20.4
	c0.1-0.3,0.3-0.7,0.5-1c0.4-0.7,0.8-0.6,1.1,0.1c0.5,1,0.9,1.9,1.3,2.9c2.5,6.1,5,12.2,7.5,18.3c1.2,2.8,0.2,5.2-1.4,7.4
	C48,43.4,45.2,44.7,41.6,44.7z M41.1,33.9c0-5.5,0-10.9,0-16.2c-0.1,0-0.1,0-0.2,0c-2.2,5.4-4.5,10.8-6.8,16.2
	C36.6,33.9,38.8,33.9,41.1,33.9z M42.8,33.9c2.3,0,4.5,0,6.8,0C47.4,28.3,45.2,23,43,17.6c-0.1,0-0.1,0.1-0.2,0.1
	C42.8,23,42.8,28.4,42.8,33.9z"/>
</svg>
