<?xml version="1.0" encoding="utf-8"?>
<!-- Generator: Adobe Illustrator 24.0.1, SVG Export Plug-In . SVG Version: 6.00 Build 0)  -->
<svg version="1.1" id="Warstwa_1" xmlns="http://www.w3.org/2000/svg" xmlns:xlink="http://www.w3.org/1999/xlink" x="0px" y="0px"
	 viewBox="0 0 55.1 78.1" style="enable-background:new 0 0 55.1 78.1;" xml:space="preserve">
<style type="text/css">
	.st0{fill:#92D35E;}
</style>
<path class="st0" d="M52.2,57.3c-1.9-1-3.8-2-5.7-2.8c-2.8-1.1-5.6-2.1-8.4-3.1c-0.2-0.1-0.6-0.2-0.7,0c-0.1,0.2-0.2,0.6-0.1,0.8
	c0.4,1.5,0.3,3.1,0,4.5c-0.5,1.9-1.1,3.8-1.9,5.5c-1.3,2.8-2.9,5.5-5,7.6c-0.9,0.9-1.8,1.8-2.6,2.7c-0.4,0.4-0.8,0.4-1.2,0
	c-0.5-0.5-1-0.9-1.4-1.3c-3.2-3.2-5.5-7.3-7.2-11.8c-0.8-2.2-1.1-4.5-0.8-7c0-0.4,0-0.7,0-1.2c-0.6,0.2-1.2,0.5-1.8,0.7
	c-3.4,1.3-6.9,2.5-10.3,3.8c-1.9,0.8-3.7,2-5.1,3.7v18.5c0.3,0.1,0.7,0.2,1.1,0.2c2.5,0,5,0,7.5,0c12.5,0,25.1,0,37.6,0
	c2.5,0,5,0,7.5,0c0.5,0,1-0.1,1.4-0.4V60C54.4,58.9,53.4,58,52.2,57.3z"/>
<path class="st0" d="M27.3,0c3.7,0,7.2,1.1,10.2,3.9c2.6,2.4,4,5.5,4.4,9.4c0.3,3.3,0.1,6.5-0.2,9.7c0,0.2,0.2,0.5,0.3,0.6
	c1,0.3,1.5,1.1,1.6,2.3c0.2,2.9-0.4,5.6-2.2,7.7c-0.2,0.2-0.3,0.5-0.4,0.8c-0.9,2.8-2.3,5.2-3.6,7.6c-1.5,2.9-3.7,4.8-6.2,6.1
	c-1.7,0.9-3.4,0.9-5.2,0.6c-4.1-0.6-6.9-3.6-9.1-7.5c-1.1-1.9-2-4-2.9-6c-0.3-0.8-0.7-1.5-1.2-2.2c-1.4-2.1-2-4.6-1.6-7.4
	c0.1-1,0.5-1.8,1.4-2.1c0.2-0.1,0.3-0.5,0.3-0.7c-0.1-1.8-0.2-3.6-0.3-5.4c-0.2-5.9,1-11.1,5.6-14.4c1.8-1.4,3.8-2.3,6-2.6
	C25.2,0.3,26.3,0.1,27.3,0z M16,27c-0.1,0-0.1,0-0.2,0.1c-0.2-0.5-0.3-1-0.6-1.4C15,25.3,14.6,25,14.3,25c-0.2,0-0.6,0.4-0.7,0.8
	c-0.2,0.7-0.3,1.5-0.2,2.3c0.2,1.5,0.9,2.8,1.6,4c0.3,0.5,0.6,1.1,0.9,1.7c1,2.2,1.8,4.5,2.9,6.6c1.8,3.6,4.4,5.9,8,6
	c2.1,0.1,4.2-0.3,6-1.8c1.8-1.5,3-3.5,4-5.8c1.2-3,2.5-6,4.1-8.8c0.6-1.2,0.8-2.6,0.4-3.9c-0.1-0.4-0.4-0.9-0.7-1.1
	c-0.5-0.2-0.8,0.4-1,0.8c-0.4,0.8-0.7,1.6-1,2.4c0-0.5,0-1,0-1.4c0.3-1.8,0.5-3.6,0.8-5.4c0.2-1.4,0-1.5-1.1-1.6
	c-2.7-0.1-5.2-0.5-7.8-1.4c-3.5-1.2-6.5-3.2-9-6.4c-0.1-0.1-0.3-0.2-0.5-0.2c-1.7,0.5-3.2,1.4-4.2,3.2c-0.8,1.5-1.7,3.1-1.4,5
	c0.3,2,0.5,3.9,0.8,5.9C16.1,26.2,16,26.6,16,27z"/>
<path class="st0" d="M27.3,51.1c0.2,0,0.5,0,0.7,0c1.6-0.3,2.5,0.8,3.3,2.2c0.1,0.2,0.1,0.7,0,0.9c-0.6,0.9-1.3,1.8-2,2.6
	c-0.4,0.5-0.5,0.9-0.3,1.5c0.8,2.3,1.6,4.6,2.3,6.9c0.1,0.3,0.1,0.9-0.1,1.2c-0.9,1.7-2.2,3.1-3.6,4.2c-0.2,0.1-0.5,0.1-0.7,0
	c-1.4-1.2-2.7-2.5-3.6-4.4c-0.1-0.2-0.1-0.6,0-0.9c0.3-1,0.6-2.1,1-3.1c0.4-1.1,0.8-2.2,1.2-3.2c0.5-1.2,0.3-1.5-0.4-2.4
	c-0.7-0.8-1.2-1.8-1.8-2.7c-0.1-0.1,0-0.5,0.1-0.7c0.5-0.6,1-1.3,1.6-1.8c0.2-0.2,0.5-0.3,0.8-0.3C26.2,51.1,26.7,51.1,27.3,51.1z"
	/>
</svg>
