<?xml version="1.0" encoding="utf-8"?>
<!-- Generator: Adobe Illustrator 24.0.1, SVG Export Plug-In . SVG Version: 6.00 Build 0)  -->
<svg version="1.1" id="Warstwa_1" xmlns="http://www.w3.org/2000/svg" xmlns:xlink="http://www.w3.org/1999/xlink" x="0px" y="0px"
	 viewBox="0 0 55.1 78.1" style="enable-background:new 0 0 55.1 78.1;" xml:space="preserve">
<style type="text/css">
	.st0{fill:#4B4B4B;}
</style>
<g>
	<path class="st0" d="M50.6,34.2c0,13.9,0,27.5,0,41.3c1,0,2,0,3,0c0.7,0,1.5-0.1,1.5,1.3c0,1.3-0.9,1.2-1.5,1.2c-16,0-32,0-48,0
		c-1.4,0-2.8,0-4.2,0c-0.6,0-1.3-0.2-1.2-1.3c0.1-0.5,0.7-1,1.2-1.1c1-0.2,2.1-0.1,3.2-0.1c0-13.7,0-27.3,0-41.2
		c-0.9,0.9-1.8,1.8-2.6,2.6c-0.4,0.3-1,0.7-1.3,0.4c-0.3-0.2-0.5-1.1-0.5-1.7c-0.1-2.5-0.1-5,0-7.6c0-0.7,0.3-1.6,0.7-2
		c1.4-1.6,2.9-3.1,4.4-4.5c0.7-0.7,0.9-1.4,0.9-2.6c0-5.5,0-11,0-16.5C6.1,0.2,6.2,0,7.8,0c2.5,0,5,0,7.5,0c1,0,1.4,0.5,1.4,1.9
		c0,2.4,0,4.9,0,7.6c0.4-0.4,0.7-0.6,0.9-0.8c2.4-2.4,4.7-4.8,7.1-7.3c1.9-1.9,3.6-1.9,5.5,0c8,8.2,16,16.4,24,24.6
		c0.4,0.4,0.7,1.2,0.7,1.9c0.1,2.7,0.1,5.3,0,8c0,1.6-0.6,2.1-1.6,1.2C52.6,36.2,51.7,35.3,50.6,34.2z M6.3,75.4
		c14.3,0,28.4,0,42.5,0c0-0.3,0.1-0.4,0.1-0.6c0-13.8,0-27.6,0-41.4c0-0.6-0.4-1.4-0.8-1.8C41.7,25,35.3,18.5,28.9,12
		c-0.4-0.5-0.9-0.9-1.4-1.3c-7,7.1-13.9,14.1-20.7,21.2c-0.3,0.3-0.5,1.2-0.5,1.8c0,6.8,0,13.6,0,20.5C6.3,61.2,6.3,68.2,6.3,75.4z
		 M53.4,34c0-2,0-3.6,0-5.2c0-0.5-0.3-1.1-0.6-1.4c-7.8-8-15.7-16.1-23.6-24.1c-1.2-1.2-2.1-1.2-3.3,0c-7.9,8-15.7,16-23.6,24.1
		c-0.2,0.2-0.6,0.6-0.6,0.9c-0.1,1.8,0,3.6,0,5.6c0.5-0.5,0.8-0.8,1.1-1.1c7.8-8,15.7-16,23.5-24c0.9-0.9,1.5-0.9,2.4,0
		c4.7,4.9,9.5,9.8,14.3,14.6C46.4,26.9,49.8,30.3,53.4,34z M7.9,2.6c0,5.4,0,10.7,0,16.1c2.3-2.4,4.6-4.6,6.8-6.9
		c0.2-0.2,0.3-0.5,0.3-0.8c0-2.8,0-5.6,0-8.5C12.5,2.6,10.2,2.6,7.9,2.6z"/>
	<path class="st0" d="M18,36.8c0-1.1,0-2,0-2.9c0.1-2.6,1.3-4.1,3.5-4.1c4.4,0,8.7,0,13.1,0c2.3,0,3.5,1.5,3.5,4.2
		c0,0.9,0,1.8,0,2.8c1.4,0,2.6,0,3.8,0c2.4,0.1,3.8,1.7,3.8,4.5c0,8.2,0,16.5,0,24.7c0,2.6-1.4,4.3-3.6,4.3c-9.4,0-18.8,0-28.2,0
		c-2.3,0-3.6-1.7-3.6-4.4c0-8.1,0-16.3,0-24.4c0-3.1,1.4-4.7,4.1-4.7C15.5,36.8,16.7,36.8,18,36.8z M12.4,51.2c0,5.1,0,9.9,0,14.7
		c0,1.4,0.7,2,1.9,2c9.2,0,18.3,0,27.5,0c1.4,0,1.9-0.6,1.9-2.3c0-2.3,0-4.6,0-6.9c0-2.4,0-4.9,0-7.5c-0.5,0.1-0.8,0.1-1.1,0.2
		c-3.1,0.9-6.2,1.8-9.4,2.6c-1,0.3-1.4,0.7-1.3,1.9c0.1,2.3-0.9,3.4-3,3.4c-0.4,0-0.7,0-1.1,0c-3.2,0-3.8-0.6-3.9-4.4
		c0-0.1-0.1-0.3-0.1-0.5C20.1,53.4,16.4,52.3,12.4,51.2z M23.5,51.8c0.8-1.3,1.2-2.8,2-3c1.6-0.4,3.4-0.6,5-0.1
		c0.8,0.2,1.4,1.8,2.3,3c3.2-0.9,6.7-1.9,10.2-2.9c0.3-0.1,0.8-0.7,0.8-1.1c0.1-2.1,0.1-4.3,0-6.4c0-1.3-0.6-1.9-1.7-1.9
		c-9.3,0-18.6,0-27.9,0c-1.2,0-1.7,0.7-1.7,2c0,2.1,0,4.2,0,6.3c0,0.4,0.4,1.1,0.7,1.2C16.7,49.9,20.3,50.9,23.5,51.8z M20.1,36.6
		c5.3,0,10.6,0,15.9,0c0-0.8,0-1.4,0-2c0-2.2-0.2-2.5-2-2.5c-3.5,0-7,0-10.4,0C19.9,32.2,19.9,32.2,20.1,36.6z M29.9,53.5
		c0-0.1,0-0.6,0.1-1.1c0.1-1.2-0.2-1.7-1.3-1.6c-2.5,0.1-2.5,0-2.5,3.1c0,0.7-0.1,1.5,0,2.2c0,0.3,0.3,0.8,0.6,0.8
		C29.3,57.6,30.1,57,29.9,53.5z"/>
	<polygon class="st0" points="3.7,35.1 3.7,76.1 4.9,76.1 4.9,33.3 	"/>
	<polygon class="st0" points="51.4,34 51.4,76.1 50.3,76.1 49.6,35.4 49.6,33.3 	"/>
</g>
</svg>
