<?xml version="1.0" encoding="utf-8"?>
<!-- Generator: Adobe Illustrator 24.0.1, SVG Export Plug-In . SVG Version: 6.00 Build 0)  -->
<svg version="1.1" id="Warstwa_1" xmlns="http://www.w3.org/2000/svg" xmlns:xlink="http://www.w3.org/1999/xlink" x="0px" y="0px"
	 viewBox="0 0 55.1 78.1" style="enable-background:new 0 0 55.1 78.1;" xml:space="preserve">
<style type="text/css">
	.st0{fill:#4B4B4B;}
</style>
<path class="st0" d="M28.9,31.2c4-1.1,6.4,0.4,7.9,3.1c1.7-0.7,3.5-0.9,5.2-0.1c1.8,0.7,2.8,2.1,3.4,3.9c0.6-0.1,1.2-0.3,1.9-0.4
	c3.6-0.4,6.5,2.1,6.5,5.7c0.1,5.3,0.1,10.6,0,15.9c-0.1,3.7-1.3,7.1-3.5,10.1c-0.3,0.4-0.4,0.9-0.4,1.4c-0.1,1,0,1.9,0,2.9
	c-0.1,2.7-1.8,4.5-4.5,4.5c-6.6,0-13.3,0-19.9,0c-2.6,0-4.3-1.8-4.4-4.5c0-0.1,0-0.2,0-0.3c0.4-2.6-0.5-4.7-2.3-6.6
	c-2-2.1-3.7-4.5-5.5-6.8c-3.7-4.6-3-10.8,1.8-14.3c1.7-1.2,2.3-2.4,2.3-4.5c-0.2-6,0-11.9-0.1-17.9c0-2.4,0.9-4.4,3.1-5.5
	c3.5-1.7,8.1-0.1,8.6,4.6c0.2,2.5,0.1,5,0.1,7.5C28.9,30.4,28.9,30.7,28.9,31.2z M17.2,48.8c-0.1-0.1-0.2-0.1-0.3-0.2
	c-0.5,0.5-1,0.9-1.4,1.4c-1.7,2.3-1.6,5.2,0.2,7.5c2.6,3.3,5.2,6.6,7.9,9.9c0.6,0.7,0.9,1.5,0.9,2.5c-0.1,1.2,0,2.3,0,3.5
	c0,1,0.3,1.3,1.3,1.3c6.5,0,12.9,0,19.4,0c1,0,1.3-0.3,1.3-1.3c0-1.2-0.1-2.3,0-3.5c0.1-0.7,0.3-1.5,0.7-2c2.2-2.9,3.3-6.2,3.3-9.9
	c0-3.7,0-7.4,0-11.1c0-1.2,0-2.3,0-3.5c0-1.5-1-2.4-2.5-2.4c-1.4,0-2.3,0.9-2.4,2.3c0,1.4,0,2.7,0,4.1c0,1.2-0.7,2-1.7,2
	c-1,0-1.6-0.8-1.7-1.9c0-0.2,0-0.5,0-0.7c0-2.4,0-4.8,0-7.1c0-1.7-0.9-2.6-2.4-2.6c-1.5,0-2.4,0.9-2.4,2.6c0,2.4,0,4.8,0,7.1
	c0,0.3,0,0.5,0,0.8c-0.1,1.1-0.8,1.8-1.7,1.8c-0.9,0-1.6-0.7-1.7-1.8c0-0.3,0-0.6,0-0.9c0-3.3,0-6.7,0-10c0-1.5-0.8-2.4-2.1-2.6
	c-1.6-0.1-2.7,0.8-2.7,2.5c0,3.4,0,6.8,0,10.3c0,0.4,0,0.8-0.1,1.1c-0.2,0.8-0.9,1.4-1.7,1.3c-0.8,0-1.4-0.6-1.6-1.3
	c-0.1-0.4-0.1-0.8-0.1-1.2c0-7.7,0-15.4,0-23c0-0.3,0-0.7,0-1c-0.1-1.1-0.9-1.9-2-2.1c-1.8-0.2-2.8,0.8-2.8,2.6c0,8.4,0,16.8,0,25.2
	c0,1.4,0.1,2.8,0,4.3c0,0.6-0.3,1.2-0.6,1.6c-0.4,0.5-1.1,0.6-1.7,0.4c-0.7-0.3-1.1-0.9-1.1-1.6C17.2,51.7,17.2,50.3,17.2,48.8z"/>
<path class="st0" d="M39.5,6.7c-0.4,0.6-0.5,1.1-0.9,1.5c-2.4,2.4-4.8,4.8-7.2,7.2c-0.8,0.8-1.8,0.8-2.5,0.1c-0.7-0.7-0.7-1.7,0-2.4
	c2.4-2.5,4.9-5,7.4-7.5c0.5-0.6,1.3-0.8,2-0.3C38.8,5.6,39.1,6.2,39.5,6.7z"/>
<path class="st0" d="M8.2,5c0.4,0.2,0.9,0.4,1.2,0.7c2.4,2.4,4.7,4.7,7,7.1c0.9,0.9,0.9,2,0.2,2.7c-0.7,0.7-1.7,0.6-2.6-0.3
	c-2.3-2.3-4.6-4.6-6.9-7C6.1,7.2,6.2,5.8,7.3,5.3C7.6,5.1,7.8,5.1,8.2,5z"/>
<path class="st0" d="M24.6,7c0,1.7,0,3.4,0,5c0,1.2-0.7,2-1.8,2c-1,0-1.7-0.8-1.7-2c0-3.4,0-6.7,0-10.1c0-1.2,0.7-2,1.8-2
	c1,0,1.7,0.8,1.7,2C24.6,3.7,24.6,5.4,24.6,7z"/>
<path class="st0" d="M7.4,22.2c-1.6,0-3.3,0-4.9,0c-1.3,0-2-0.7-2-1.7c0-1.1,0.8-1.7,2-1.7c3.3,0,6.6,0,9.8,0c1.3,0,2,0.7,2,1.7
	c0,1.1-0.8,1.7-2,1.7C10.7,22.2,9.1,22.2,7.4,22.2z"/>
<path class="st0" d="M38.2,22.2c-1.7,0-3.3,0-5,0c-1.2,0-2-0.7-2-1.8c0-1,0.8-1.7,2-1.7c3.3,0,6.6,0,9.9,0c1.2,0,2,0.7,2,1.8
	c0,1-0.8,1.7-2,1.7C41.5,22.2,39.9,22.2,38.2,22.2z"/>
</svg>
