<?xml version="1.0" encoding="utf-8"?>
<!-- Generator: Adobe Illustrator 24.0.1, SVG Export Plug-In . SVG Version: 6.00 Build 0)  -->
<svg version="1.1" id="Layer_1" xmlns="http://www.w3.org/2000/svg" xmlns:xlink="http://www.w3.org/1999/xlink" x="0px" y="0px"
	 viewBox="0 0 808.4 712.5" style="enable-background:new 0 0 808.4 712.5;" xml:space="preserve">
<style type="text/css">
	.st0{opacity:0.39;}
	.st1{fill:#5AE4A7;stroke:#1A2E35;stroke-linecap:round;stroke-linejoin:round;stroke-miterlimit:10;}
	.st2{opacity:0.7;fill:#5AE4A7;stroke:#1A2E35;stroke-linecap:round;stroke-linejoin:round;stroke-miterlimit:10;}
	.st3{fill:none;stroke:#838484;stroke-linecap:round;stroke-linejoin:round;stroke-miterlimit:10;}
	.st4{fill:#FFFFFF;stroke:#838484;stroke-linecap:round;stroke-linejoin:round;stroke-miterlimit:10;}
	.st5{fill:none;stroke:#B8BBBC;stroke-linecap:round;stroke-linejoin:round;stroke-miterlimit:10;}
	.st6{fill:none;stroke:#D8D8D8;stroke-linecap:round;stroke-linejoin:round;stroke-miterlimit:10;}
	.st7{fill:#D1D3D3;}
	.st8{fill:none;stroke:#1A2E35;stroke-linecap:round;stroke-linejoin:round;stroke-miterlimit:10;}
	.st9{fill:#1A2E35;stroke:#1A2E35;stroke-linecap:round;stroke-linejoin:round;stroke-miterlimit:10;}
	.st10{fill:#FFFFFF;stroke:#1A2E35;stroke-linecap:round;stroke-linejoin:round;stroke-miterlimit:10;}
	.st11{fill:#A6A6A6;stroke:#1A2E35;stroke-linecap:round;stroke-linejoin:round;stroke-miterlimit:10;}
	.st12{fill:none;stroke:#1A2E35;stroke-width:2;stroke-linecap:round;stroke-linejoin:round;stroke-miterlimit:10;}
	.st13{fill:#1A2E35;stroke:#FFFFFF;stroke-linecap:round;stroke-linejoin:round;stroke-miterlimit:10;}
	.st14{fill:none;stroke:#B4B5B5;stroke-linecap:round;stroke-linejoin:round;stroke-miterlimit:10;}
</style>
<g>
	<g class="st0">
		<path class="st1" d="M756.5,349c-8,68-39.1,147.1-101.1,183.4c-93.7,54.9-85.9,139.3-268.7,176c-28.5,5.7-55.6,8.1-81.1,7.7
			c-13.7-0.3-27-1.4-39.8-3.2c-116.2-17-194.4-97.8-223.1-195.3C4.9,389.3,80.3,305.3,130.3,254.7c50-50.6,86.6-208.2,266.1-245.7
			c27.4-5.7,55.4-8.6,83.3-7.9c63.9,1.6,133.5,22.5,181.7,66.3c3.6,3.3,7.1,6.7,10.6,10.2C739,146.4,767.5,256.3,756.5,349z"/>
		<path class="st2" d="M756.5,349c-8,68-39.1,147.1-101.1,183.4c-93.7,54.9-85.9,139.3-268.7,176c-28.5,5.7-55.6,8.1-81.1,7.7
			c-13.7-0.3-27-1.4-39.8-3.2c-116.2-17-194.4-97.8-223.1-195.3C4.9,389.3,80.3,305.3,130.3,254.7c50-50.6,86.6-208.2,266.1-245.7
			c27.4-5.7,55.4-8.6,83.3-7.9c63.9,1.6,133.5,22.5,181.7,66.3c3.6,3.3,7.1,6.7,10.6,10.2C739,146.4,767.5,256.3,756.5,349z"/>
	</g>
	<g>
		<line class="st3" x1="703.6" y1="642.4" x2="703.6" y2="453.4"/>
		<line class="st3" x1="688.3" y1="642.4" x2="688.3" y2="548.7"/>
		<g>
			<path class="st4" d="M708.4,484.4c0,0-15.4-1.8-21.7-14c-6.3-12.2-6.9-43.8,17.1-78.6c24.1-34.9,36.7-35.3,40.8-6.8
				c4.2,28.5,3.6,69.9-6.3,85.6C728.6,486.3,708.4,484.4,708.4,484.4z"/>
			<path class="st3" d="M713.9,418.5c2.9-9.7,6.2-18.5,10.2-24.4"/>
			<path class="st3" d="M702,482.2c0,0,3.2-30.5,10.1-57.1"/>
		</g>
		<g>
			<path class="st4" d="M717.6,545.7c0,0-9.9-7.7-9.1-18.7c0.8-11.1,13.5-33.1,44.7-47.1c31.2-14,40.1-9,31,12.4
				c-9,21.4-26.8,49.7-40.2,56.4C730.7,555.5,717.6,545.7,717.6,545.7z"/>
			<path class="st3" d="M749,502.6c6-5.5,12-10.1,17.2-12.5"/>
			<path class="st3" d="M745,506.4c-15.9,15.4-30.8,35.1-30.8,35.1s-8,10.7-10.4,32.1"/>
		</g>
		<g>
			<path class="st4" d="M712,609.6c0,0-5.7-4.5-5.3-10.9c0.5-6.4,7.8-19.2,25.9-27.3c18.1-8.1,23.2-5.2,18,7.2
				c-5.2,12.4-15.5,28.8-23.3,32.7C719.5,615.3,712,609.6,712,609.6z"/>
			<path class="st3" d="M730.1,584.7c3.5-3.2,7-5.9,10-7.3"/>
			<path class="st3" d="M727.8,586.9c-9.2,8.9-17.9,20.4-17.9,20.4s-4.6,6.2-6,18.6"/>
		</g>
		<g>
			<path class="st4" d="M689.6,520.2c0,0,9.9-7.7,9.1-18.7c-0.8-11.1-13.5-33.1-44.7-47.1c-31.2-14-40.1-9-31,12.4
				c9,21.4,26.8,49.7,40.2,56.4C676.5,529.9,689.6,520.2,689.6,520.2z"/>
			<path class="st3" d="M658.3,477.1c-6-5.5-12-10.1-17.2-12.5"/>
			<path class="st3" d="M662.3,480.8c15.9,15.4,30.8,35.1,30.8,35.1s8,10.7,10.4,32.1"/>
		</g>
		<g>
			<path class="st4" d="M684.8,605.5c0,0,10,0.3,15.1-5.7c5-6,8-22.9-4.5-43.6s-20.6-22-25.6-7c-5,15-8,37.2-3,46.5
				C671.7,604.9,684.8,605.5,684.8,605.5z"/>
			<path class="st3" d="M686.3,590.2c0.2,2.1,0.3,4.1,0.3,6.1"/>
			<path class="st3" d="M678.6,548.3c0,0,5.3,17.8,7.3,37.1"/>
		</g>
	</g>
	<g>
		<g>
			<polyline class="st5" points="36.8,483.5 268.7,483.5 268.7,10.3 			"/>
			<polyline class="st5" points="514.7,483.5 282.8,483.5 282.8,10.3 			"/>
		</g>
		<g>
			<polyline class="st5" points="377.5,483.5 609.3,483.5 609.3,10.3 			"/>
		</g>
		<g>
			<line class="st5" x1="562" y1="121.4" x2="481" y2="210.9"/>
			<line class="st5" x1="517" y1="190.7" x2="494.6" y2="215.5"/>
			<line class="st5" x1="338.4" y1="97.9" x2="294.7" y2="146.2"/>
			<line class="st5" x1="350.3" y1="86.1" x2="379.8" y2="53.4"/>
			<line class="st5" x1="259.2" y1="385.4" x2="230.8" y2="416.8"/>
			<line class="st5" x1="249.7" y1="343.6" x2="197.1" y2="401.8"/>
		</g>
	</g>
	
		<ellipse transform="matrix(0.7071 -0.7071 0.7071 0.7071 115.2304 536.9705)" class="st6" cx="705.8" cy="129.4" rx="83.9" ry="83.9"/>
	<circle class="st7" cx="705.8" cy="129.4" r="73.2"/>
	<circle class="st8" cx="705.8" cy="129.4" r="5"/>
	<line class="st8" x1="705.8" y1="134.4" x2="705.8" y2="159"/>
	<line class="st8" x1="700.8" y1="129.4" x2="641.1" y2="129.4"/>
	<g>
		<path class="st9" d="M324.7,331.9l-27.6-42.8c11.8-19,18.6-41.4,18.6-65.4c0-68.6-55.7-124.3-124.3-124.3
			c-68.6,0-124.3,55.7-124.3,124.3S122.7,348,191.4,348c36.3,0,68.9-15.6,91.6-40.3L324.7,331.9z"/>
		<path class="st10" d="M327.3,321.4l-27.6-42.8c11.8-19,18.6-41.4,18.6-65.4c0-68.6-55.7-124.3-124.3-124.3S69.7,144.6,69.7,213.2
			c0,68.6,55.7,124.3,124.3,124.3c36.3,0,68.9-15.6,91.6-40.3L327.3,321.4z"/>
	</g>
	<g>
		<g>
			<path class="st9" d="M106.8,231.1v-11.6l19.1-29.3c1.4-2.2,2.8-4.3,4.1-6.3c1.3-2,2.3-4.1,3.1-6.2c0.8-2.1,1.2-4.3,1.2-6.6
				c0-2.3-0.5-4-1.4-5.1c-0.9-1.1-2.2-1.7-3.7-1.7c-1.8,0-3.1,0.5-4.1,1.5c-1,1-1.7,2.3-2,3.9c-0.4,1.6-0.5,3.5-0.5,5.5v3.9h-15.9
				V175c0-4.7,0.8-8.9,2.3-12.6c1.5-3.7,3.9-6.6,7.2-8.8c3.3-2.1,7.6-3.2,12.9-3.2c7.1,0,12.5,1.9,16.2,5.6
				c3.6,3.7,5.5,8.9,5.5,15.5c0,3.2-0.5,6.2-1.5,9c-1,2.8-2.4,5.4-4,8c-1.7,2.6-3.5,5.3-5.4,8.1l-14.6,21.7h23.3v12.9H106.8z"/>
			<path class="st9" d="M178.7,231.1v-17.9h-24.5v-12.1l20.8-49.7H194V201h7.4v12.2H194v17.9H178.7z M166.7,201h12v-33.2L166.7,201z
				"/>
			<path class="st9" d="M207.5,231.1l24.4-79.7h8.7L216,231.1H207.5z"/>
			<path class="st9" d="M251.2,231.1l17.3-67.2h-21.7v-12.5h37.8v11.3l-17.3,68.4H251.2z"/>
		</g>
		<g>
			<path class="st9" d="M122.2,282.1c-2.2,0-4.1-0.5-5.6-1.4c-1.5-0.9-2.6-2.2-3.3-3.9c-0.7-1.7-1.2-3.6-1.4-5.9l3.4-1
				c0.2,1.7,0.5,3.2,0.9,4.6c0.4,1.4,1.1,2.5,2.1,3.3c0.9,0.8,2.3,1.2,3.9,1.2c1.8,0,3.3-0.5,4.3-1.4c1-1,1.5-2.5,1.5-4.5
				c0-1.8-0.5-3.4-1.3-4.7c-0.9-1.3-2.1-2.7-3.7-4.2l-7.3-7c-1.3-1.3-2.2-2.6-2.9-3.9c-0.6-1.3-0.9-2.8-0.9-4.4c0-2.9,0.8-5,2.5-6.6
				c1.7-1.5,4-2.3,6.8-2.3c1.5,0,2.8,0.2,3.9,0.6c1.2,0.4,2.2,1,3,1.8c0.8,0.8,1.5,1.9,2,3.2c0.5,1.3,0.8,2.9,1,4.8l-3.3,0.9
				c-0.1-1.7-0.4-3.2-0.8-4.5c-0.4-1.2-1.1-2.2-2-2.8c-0.9-0.6-2.1-1-3.7-1c-1.7,0-3.1,0.4-4.2,1.3c-1.1,0.9-1.6,2.3-1.6,4.1
				c0,1.1,0.2,2.1,0.6,3.1c0.4,0.9,1.2,1.9,2.3,3l7.3,6.9c1.6,1.5,3,3.2,4.2,5.1c1.2,1.9,1.8,4,1.8,6.3c0,2.1-0.4,3.8-1.2,5.2
				c-0.8,1.4-1.9,2.4-3.3,3.1C125.8,281.8,124.1,282.1,122.2,282.1z"/>
			<path class="st9" d="M136.8,281.6v-41.2h14.9v3h-11v15.5h9v2.9h-9v17h11.1v2.9H136.8z"/>
			<path class="st9" d="M157.2,281.6v-41.2h9.3c2.6,0,4.6,0.4,6.1,1.2c1.5,0.8,2.5,2,3.2,3.6c0.6,1.6,1,3.5,1,5.6
				c0,1.5-0.2,3-0.5,4.3c-0.3,1.4-0.9,2.5-1.7,3.5c-0.8,0.9-2,1.6-3.5,1.9l6.3,21.1h-3.8l-6.1-20.3H161v20.3H157.2z M161,258.5h5.2
				c1.7,0,3.1-0.3,4-0.9c0.9-0.6,1.6-1.4,2-2.5c0.4-1.1,0.6-2.5,0.6-4.2c0-2.5-0.4-4.4-1.3-5.7c-0.9-1.3-2.6-1.9-5.2-1.9H161V258.5z
				"/>
			<path class="st9" d="M183.3,281.6v-41.2h3.9v41.2H183.3z"/>
			<path class="st9" d="M201.8,281.6l-9.7-41.2h3.7l7.8,34.2l7.3-34.2h3.7l-9.3,41.2H201.8z"/>
			<path class="st9" d="M219.5,281.6v-41.2h3.9v41.2H219.5z"/>
			<path class="st9" d="M240.3,282.1c-2.8,0-4.9-0.6-6.4-1.7c-1.5-1.2-2.6-2.7-3.1-4.7c-0.6-2-0.9-4.1-0.9-6.5v-16.4
				c0-2.5,0.3-4.8,0.9-6.7c0.6-1.9,1.7-3.4,3.2-4.5c1.5-1.1,3.6-1.6,6.4-1.6c2.5,0,4.4,0.5,5.8,1.4c1.4,1,2.4,2.3,3,4
				c0.6,1.7,0.9,3.8,0.9,6.2v2.5h-3.7v-2.4c0-1.8-0.1-3.3-0.4-4.6c-0.3-1.3-0.9-2.3-1.8-3c-0.9-0.7-2.2-1.1-3.9-1.1
				c-1.8,0-3.2,0.4-4.1,1.1c-0.9,0.8-1.6,1.8-1.9,3.2c-0.3,1.4-0.5,3-0.5,4.8v17.6c0,2,0.2,3.7,0.6,5.1c0.4,1.4,1.1,2.4,2,3.1
				c0.9,0.7,2.3,1,3.9,1c1.7,0,3-0.4,3.9-1.1c0.9-0.7,1.5-1.8,1.8-3.1c0.3-1.3,0.4-2.9,0.4-4.7v-2.7h3.7v2.4c0,2.4-0.3,4.5-0.8,6.4
				c-0.6,1.9-1.5,3.3-3,4.4C244.9,281.6,242.9,282.1,240.3,282.1z"/>
			<path class="st9" d="M256.1,281.6v-41.2H271v3h-11v15.5h9v2.9h-9v17h11.1v2.9H256.1z"/>
		</g>
	</g>
	<path class="st9" d="M549,470.8h89.7c0,0-48.5,119.4-39.4,172.8h-90.9C508.4,643.6,525.4,507.2,549,470.8z"/>
	<g>
		<path class="st9" d="M471.4,299.4c0,0,0.9,16.2,31,25.6c30.1,9.4,60.6,0,77.7,13.5c17.1,13.5,16.6,34.1,10.8,44.5
			s-15.3,20.7,12.6,32.8c27.8,12.1,11.2,47.6-0.4,60.6c-11.7,13-31.9,19.3-54.3,14.8c-22.5-4.5-49-58.8-77.7-87.6
			c-28.7-28.7-32.3-81.8-13.9-97C475.3,291.4,471.4,299.4,471.4,299.4z"/>
		<path class="st11" d="M466.7,241.3c0,0,12.4-5.4,15.6,5.1c3.2,10.5,4.1,39.1,4.1,39.1l-6.7-1.6c0,0,1.6-32.4-5.7-37.5
			c-7.3-5.1-13,6.4-13,6.4L466.7,241.3z"/>
		<path class="st9" d="M327.6,590.1l42.3-22.6c0,0-2.9-44.4-2.5-46.1c0.4-1.7,11-88.6,11-88.6l-29.1,86.1L327.6,590.1z"/>
		<path class="st1" d="M514.8,388.1c0,0,41.8,22.8,47.5,25.2c5.7,2.4,2.4,31.4,2.4,50.4s-28.5,179.6-28.5,179.6H325.3
			c0,0,35.6-54.6,36.6-68.9c0.9-14.3-5.2-25.7-6.2-39.4c-1-13.8,19.5-97.9,22.8-102.1c3.3-4.3,17.6-15.2,17.6-15.2l50.4-44.2
			l23.3-5.2L514.8,388.1z"/>
		<g>
			<line class="st8" x1="375.1" y1="589.7" x2="368" y2="604.2"/>
			<path class="st8" d="M381.8,548.2c0,0-10.5,7.1-5.2,10.9c5.2,3.8,7.6,11.9,7.6,11.9l-6.7,13"/>
			<path class="st8" d="M431,582.7c2.8,0.2,5.8,0.4,8.9,0.5"/>
			<path class="st8" d="M386.1,571c0,0,11.4,7.6,36.1,10.8"/>
		</g>
		<path class="st11" d="M357.7,267.3c0,0-6.4,2.5-6.4,10.8s6.7,24.5,6.7,24.5l3.8-1.3c0,0-7-16.8-6-22.9c1-6,6.7-7.6,6.7-7.6
			l-1.3-4.1L357.7,267.3z"/>
		<path class="st10" d="M374.1,309.9c1.6,8.4-1.2,15.9-6.3,16.9c-5.1,1-10.5-5-12.1-13.4c-1.6-8.4,1.2-15.9,6.3-16.9
			C367,295.6,372.5,301.5,374.1,309.9z"/>
		<path class="st9" d="M389.5,307.2c3.2,10.7-0.5,21.2-8.3,23.5c-7.7,2.3-16.6-4.5-19.8-15.2c-3.2-10.7,0.5-21.2,8.3-23.5
			C377.5,289.7,386.4,296.5,389.5,307.2z"/>
		<path class="st10" d="M418.2,365.5l7.5,24.4L401,421.1l-4.1,24.1c0,0-4.1,68.7-1.8,79.2c2.3,10.6,2.3,13.5,2.3,13.5
			s51.1-59.3,76.3-95.7c25.2-36.4,31.1-58.7,31.1-58.7L480.3,370l-11.7-54.6L418.2,365.5z"/>
		<polygon class="st9" points="457.2,341.8 425.7,389.9 417,361.6 		"/>
		<path class="st10" d="M397.1,443.8l-0.2,1.4c0,0-4.1,68.7-1.8,79.2c2.3,10.6,2.3,13.5,2.3,13.5s51.1-59.3,76.3-95.7
			c2-2.9,3.8-5.6,5.6-8.3C447.8,444.7,415.6,444.9,397.1,443.8z"/>
		<g>
			<path class="st10" d="M384.7,215.5c0,0-23.5,14.3-26.1,35.9c-2.5,21.6,6.4,44.8,9.9,54c3.5,9.2,15.6,45.1,21.9,52.1
				c6.4,7,27,17.5,30.5,19.4c3.5,1.9,9.9,1.3,15.3-2.5c5.4-3.8,27.7-30.8,31.1-37.2c3.5-6.4,4.1-20.3,4.1-20.3s-0.6-28-1.9-46.1
				c-1.3-18.1-0.3-35.6-15.3-50.9C439.4,204.7,399.4,204.4,384.7,215.5z"/>
			<path class="st9" d="M469.6,270.8c-1.3-18.1-0.3-35.6-15.3-50.9c-14.9-15.3-55-15.6-69.6-4.4c0,0-23.5,14.3-26.1,35.9
				c-1.5,12.6,0.9,25.6,3.9,36.2c5.4-3.3,23.7-14.5,44.1-28.9c24.5-17.2,32.4-43.9,32.4-43.9s2.9-1.6,2.2,1.9
				c-0.6,3.5-10.2,24.2-13.7,27.3c-3.5,3.2-3.5,3.2-3.5,3.2s2.9-0.6,15.9,14.9c13,15.6,20.3,21.9,24.2,23.8c1.2,0.6,3.5,1,6.3,1.2
				C470.3,281.6,470,275.8,469.6,270.8z"/>
			<path class="st9" d="M430.5,304.5c0.4,2.3-0.4,4.4-1.9,4.7s-3-1.4-3.4-3.8c-0.4-2.3,0.4-4.4,1.9-4.7
				C428.5,300.5,430.1,302.2,430.5,304.5z"/>
			<path class="st9" d="M394.9,309.6c0.4,2.3-0.4,4.4-1.9,4.7c-1.5,0.3-3-1.4-3.4-3.8c-0.4-2.3,0.4-4.4,1.9-4.7
				C392.9,305.6,394.5,307.3,394.9,309.6z"/>
			<path class="st8" d="M415.9,290.2c0,0,10.5-8.3,20-1.6"/>
			<path class="st8" d="M394.6,294.7c0,0-12.4-6-21,4.8"/>
			<path class="st8" d="M396.8,295c0,0,8.6,4.1,9.2,12.1"/>
			<path class="st8" d="M406.4,329c0,0,3.5,2.5,9.5,0.6"/>
			<path class="st8" d="M403.8,342.3c0,0,9.5,0,20.7-4.8c11.1-4.8,15.6-11.4,15.6-11.4"/>
			<path class="st8" d="M409.2,342c0,0,3.5,3.5,9.2,3.5c5.7,0,10.8-10.2,10.8-10.2S414.6,341.7,409.2,342z"/>
		</g>
		<ellipse class="st9" cx="475.3" cy="298.3" rx="14.6" ry="20.2"/>
		<ellipse class="st10" cx="481.5" cy="294.8" rx="9.4" ry="15.4"/>
		<path class="st12" d="M367.8,319.9c0,0,0.1,33,8.7,35.9c8.6,2.9,32.1-2.9,32.1-2.9"/>
		<path class="st9" d="M420.7,352.7c0,2.5-3.1,4.6-7,4.6s-7-2.1-7-4.6c0-2.5,3.1-4.6,7-4.6S420.7,350.2,420.7,352.7z"/>
		<path class="st1" d="M422.6,391.4c0,0-10,17.6-17.1,69.8s-2.4,62.7-2.4,62.7l-10,6.2c0,0-20.9-2.4-13.8-51.8
			c7.1-49.4,10.9-57.5,10.9-57.5L422.6,391.4z"/>
		<path class="st1" d="M486.3,373.4c0,0-22.8,54.2-46.6,87.9c-23.8,33.7-56.1,82.2-56.1,82.2s17.1-8.1,53.2-35.2
			c36.1-27.1,72.7-89.3,76.5-95.5c3.8-6.2,9.5-20.4,9.5-20.4L486.3,373.4z"/>
		<g>
			<path class="st10" d="M289,614c0,0-6.8,4.4-17.5,8.7c-10.7,4.4-11.7,3.6-8.3,7.3c3.4,3.7,21.4-2.9,26.2-4.9
				c4.9-1.9,14.1-4.9,14.1-4.9s11.2,6.3,18,8.3c6.8,1.9,15.1-1,15.1-1s0.5-7.8-5.3-12.1c-5.8-4.4-18.5-14.6-22.8-14.1
				C304,601.9,289,614,289,614z"/>
			<path class="st10" d="M286.1,602.3c0,0-5.8-1.5-9.7,1.5c-3.9,2.9-8.3,12.1-8.7,14.6c-0.5,2.4,0.5,3.9,4.4,0.5
				c3.9-3.4,10.7-8.3,10.7-8.3l5.8-1.9L286.1,602.3z"/>
			<path class="st10" d="M301.1,598c0,0-11.7-3.9-14.1-0.5c-2.4,3.4-10.7,22.8-8.3,24.3c2.4,1.5,5.8-1.5,10.2-7.8
				c4.4-6.3,6.8-9.7,6.8-9.7l5.8-1L301.1,598z"/>
			<path class="st10" d="M321.9,602.3c0,0-15.2-11.9-19-9c-3.8,2.9-16.2,21.4-17.6,25.2c-1.4,3.8,5.2,1.9,10.5-2.8
				c5.2-4.8,11.4-10,11.4-10l11.9,6.2L321.9,602.3z"/>
			<path class="st10" d="M376.6,611.3c0,0-20-1-28-3.8c-8.1-2.9-24.2-9-29-8.6c-4.7,0.5-22.8,18.1-26.6,21.9
				c-3.8,3.8-3.4,4.8,0.4,5.3c3.8,0.5,12.9-5.8,17.2-9.1c4.3-3.3,8.5-5.2,8.5-5.2s6.7,9.5,11.4,13.8c4.8,4.3,16.2,7.6,20.4,7.1
				c4.3-0.5,8.1-1.4,8.1-1.4l16.2-0.5L376.6,611.3z"/>
		</g>
		<path class="st1" d="M515.3,474.1c0,0-17.6,20.4-16.6,27.6s1.4,14.3,1.4,14.3l-12.8,77.4c0,0-10.9-5.2-10.9-1c0,4.3,0,4.3,0,4.3
			l-102.6,10.5l-0.9,36.1l163.4,0.5c0,0,8.1-9,9-12.4c1-3.3,19-60.8,23.8-121.1s2.4-87.4,0-92.2c-2.4-4.8-30.4-13.8-30.4-13.8"/>
		<path class="st10" d="M491,592.8c0,0,15.2,10,24.2,12.4"/>
		<g>
			<path class="st10" d="M348.6,496.5l11.7-37.6c0,0,7.4-7.1,12.4-15.6s5-24.4,4.2-27.2c-0.7-2.8,10.3-15.6,13.4-20.2
				c3.2-4.6,5-12.7,0.7-18.7c-4.2-6-6.4,3.9-9.2,8.5c-2.8,4.6-12.7,9.2-12.7,9.2l-10.6,8.5c0,0-17.3,15.2-18.4,17.3
				c-1.1,2.1-3.2,8.8-3.2,8.8l1.4,20.5l-9.2,35.7L348.6,496.5z"/>
			<path class="st8" d="M351.5,391c0,0,8.5-13.4,11-17.7c2.5-4.2,6.4-21.2,8.8-20.2c2.5,1.1,5,6.7,4.2,14.1
				c-0.7,7.4-9.6,24.4-9.6,24.4L351.5,391z"/>
			<path class="st10" d="M330.9,475.2l7.4-25.1l-3.2-40.3l9.9-19.1l27.2-3.5c0,0,16.6,8.8,18,8.8c1.4,0,0,3.9-3.2,4.6
				c-3.2,0.7-9.2-1.1-9.2-1.1l10.3,6.7c0,0-0.7,3.2-3.2,3.9c-2.5,0.7-7.4,0.7-7.4,0.7s8.8,5.7,6.7,6.7c-2.1,1.1-4.6,1.4-6.7,1.4
				c-2.1,0-6.7,0-6.7,0l-5.3-0.7l-8.1,3.2c0,0,5.7,14.5,5.3,21.6c-0.4,7.1-9.2,11.7-9.2,11.7"/>
			<path class="st8" d="M378,399.5c0,0-5.7-4.6-8.8-4.6s-22.6,3.5-22.6,3.5"/>
			<path class="st8" d="M377.6,410.8c0,0-9.2-5-12-5c-2.8,0-25.1,5.7-25.1,5.7"/>
		</g>
		<path class="st1" d="M331.4,467.3l28.7,19.4c0,0-12.8,68.7-14,74.5c-1.3,5.9-10.5,21.4-15.1,26c-4.6,4.6-10.1,3.8-22.6,0.4
			c-12.6-3.4-23.5-13.4-23.1-26.4C285.7,548.2,331.4,467.3,331.4,467.3z"/>
	</g>
	<g>
		<rect x="174.6" y="633.7" class="st10" width="8.3" height="2.6"/>
		<rect x="186.1" y="633.7" class="st10" width="8.3" height="2.6"/>
		<rect x="197.7" y="633.7" class="st10" width="8.3" height="2.6"/>
		<rect x="209.3" y="633.7" class="st10" width="8.3" height="2.6"/>
		<rect x="220.8" y="633.7" class="st10" width="8.3" height="2.6"/>
		<rect x="232.4" y="633.7" class="st10" width="8.3" height="2.6"/>
		<rect x="243.9" y="633.7" class="st10" width="8.3" height="2.6"/>
		<rect x="255.5" y="633.7" class="st10" width="8.3" height="2.6"/>
		<rect x="267.1" y="633.7" class="st10" width="8.3" height="2.6"/>
		<rect x="278.6" y="633.7" class="st10" width="8.3" height="2.6"/>
		<rect x="290.2" y="633.7" class="st10" width="8.3" height="2.6"/>
		<rect x="301.7" y="633.7" class="st10" width="8.3" height="2.6"/>
		<rect x="313.3" y="633.7" class="st10" width="8.3" height="2.6"/>
		<rect x="324.9" y="633.7" class="st10" width="8.3" height="2.6"/>
		<rect x="336.4" y="633.7" class="st10" width="8.3" height="2.6"/>
		<rect x="348" y="633.7" class="st10" width="8.3" height="2.6"/>
		<rect x="169.8" y="635.7" class="st10" width="206.7" height="7.3"/>
		<rect x="297.2" y="635.7" class="st10" width="79.2" height="7.3"/>
	</g>
	<g>
		<g>
			<polygon class="st13" points="234.3,572.1 71.8,572.1 39.2,399.3 201.6,399.3 			"/>
			<polygon class="st13" points="229.3,567.7 71.7,567.7 40.7,403.7 198.4,403.7 			"/>
			<polygon class="st13" points="199,554.7 81.8,554.7 58.8,432.7 176,432.7 			"/>
			<line class="st8" x1="58.8" y1="432.7" x2="40.7" y2="403.7"/>
			<line class="st13" x1="176" y1="432.7" x2="198.4" y2="403.7"/>
			<line class="st13" x1="199" y1="554.7" x2="229.3" y2="567.7"/>
			<line class="st10" x1="81.8" y1="554.7" x2="71.7" y2="567.7"/>
		</g>
		<polygon class="st13" points="129.4,518.1 102.8,518.1 119.7,503 146.4,503 		"/>
		<rect x="120.4" y="633.9" class="st13" width="97.6" height="9.7"/>
		<polygon class="st13" points="162.2,643.6 135.5,643.6 102.8,606.4 129.4,606.4 		"/>
		<rect x="102.8" y="518.7" class="st13" width="26.7" height="87.3"/>
	</g>
	<path class="st10" d="M520.1,627c0,0,4.7,10,16.6,16.2"/>
	<line class="st14" x1="18.7" y1="643.6" x2="782.8" y2="643.6"/>
</g>
</svg>
