<?xml version="1.0" encoding="utf-8"?>
<!-- Generator: Adobe Illustrator 24.0.1, SVG Export Plug-In . SVG Version: 6.00 Build 0)  -->
<svg version="1.1" id="Layer_1" xmlns="http://www.w3.org/2000/svg" xmlns:xlink="http://www.w3.org/1999/xlink" x="0px" y="0px"
	 viewBox="0 0 808.4 712.5" style="enable-background:new 0 0 808.4 712.5;" xml:space="preserve">
<style type="text/css">
	.st0{opacity:0.39;}
	.st1{fill:#5AE4A7;stroke:#1A2E35;stroke-linecap:round;stroke-linejoin:round;stroke-miterlimit:10;}
	.st2{opacity:0.7;fill:#5AE4A7;stroke:#1A2E35;stroke-linecap:round;stroke-linejoin:round;stroke-miterlimit:10;}
	.st3{fill:none;stroke:#1A2E35;stroke-linecap:round;stroke-linejoin:round;stroke-miterlimit:10;}
	.st4{fill:#FFFFFF;stroke:#1A2E35;stroke-linecap:round;stroke-linejoin:round;stroke-miterlimit:10;}
	.st5{fill:#1A2E35;stroke:#1A2E35;stroke-linecap:round;stroke-linejoin:round;stroke-miterlimit:10;}
	.st6{fill:#A6A6A6;stroke:#1A2E35;stroke-linecap:round;stroke-linejoin:round;stroke-miterlimit:10;}
	.st7{fill:none;stroke:#1A2E35;stroke-width:2;stroke-linecap:round;stroke-linejoin:round;stroke-miterlimit:10;}
	.st8{fill:#1A2E35;stroke:#FFFFFF;stroke-linecap:round;stroke-linejoin:round;stroke-miterlimit:10;}
</style>
<g>
	<g class="st0">
		<path class="st1" d="M756.8,349.3c-8,68-39.1,147.1-101.1,183.4C562,587.5,569.9,672,387,708.7c-28.5,5.7-55.6,8.1-81.1,7.7
			c-13.7-0.3-27-1.4-39.8-3.2C149.9,696.1,71.7,615.3,43,517.8C5.2,389.5,80.6,305.6,130.6,255c50-50.6,86.6-208.2,266.1-245.7
			C424,3.5,452,0.6,480,1.3c63.9,1.6,133.5,22.5,181.7,66.3c3.6,3.3,7.1,6.7,10.6,10.2C739.3,146.6,767.8,256.6,756.8,349.3z"/>
		<path class="st2" d="M756.8,349.3c-8,68-39.1,147.1-101.1,183.4C562,587.5,569.9,672,387,708.7c-28.5,5.7-55.6,8.1-81.1,7.7
			c-13.7-0.3-27-1.4-39.8-3.2C149.9,696.1,71.7,615.3,43,517.8C5.2,389.5,80.6,305.6,130.6,255c50-50.6,86.6-208.2,266.1-245.7
			C424,3.5,452,0.6,480,1.3c63.9,1.6,133.5,22.5,181.7,66.3c3.6,3.3,7.1,6.7,10.6,10.2C739.3,146.6,767.8,256.6,756.8,349.3z"/>
	</g>
	<g>
		<line class="st3" x1="703.9" y1="642.6" x2="703.9" y2="453.6"/>
		<line class="st3" x1="688.6" y1="642.6" x2="688.6" y2="548.9"/>
		<g>
			<path class="st4" d="M708.7,484.6c0,0-15.4-1.8-21.7-14c-6.3-12.2-6.9-43.8,17.1-78.6c24.1-34.9,36.7-35.3,40.8-6.8
				c4.2,28.5,3.6,69.9-6.3,85.6C728.9,486.5,708.7,484.6,708.7,484.6z"/>
			<path class="st3" d="M714.2,418.8c2.9-9.7,6.2-18.5,10.2-24.4"/>
			<path class="st3" d="M702.3,482.4c0,0,3.2-30.5,10.1-57.1"/>
		</g>
		<g>
			<path class="st4" d="M717.9,546c0,0-9.9-7.7-9.1-18.7c0.8-11.1,13.5-33.1,44.7-47.1c31.2-14,40.1-9,31,12.4s-26.8,49.7-40.2,56.4
				C731,555.7,717.9,546,717.9,546z"/>
			<path class="st3" d="M749.3,502.9c6-5.5,12-10.1,17.2-12.5"/>
			<path class="st3" d="M745.2,506.6c-15.9,15.4-30.8,35.1-30.8,35.1s-8,10.7-10.4,32.1"/>
		</g>
		<g>
			<path class="st4" d="M712.2,609.9c0,0-5.7-4.5-5.3-10.9c0.5-6.4,7.8-19.2,25.9-27.3c18.1-8.1,23.2-5.2,18,7.2
				c-5.2,12.4-15.5,28.8-23.3,32.7C719.8,615.5,712.2,609.9,712.2,609.9z"/>
			<path class="st3" d="M730.4,584.9c3.5-3.2,7-5.9,10-7.3"/>
			<path class="st3" d="M728.1,587.1c-9.2,8.9-17.9,20.4-17.9,20.4s-4.6,6.2-6,18.6"/>
		</g>
		<g>
			<path class="st4" d="M689.9,520.4c0,0,9.9-7.7,9.1-18.7c-0.8-11.1-13.5-33.1-44.7-47.1c-31.2-14-40.1-9-31,12.4
				c9,21.4,26.8,49.7,40.2,56.4C676.8,530.1,689.9,520.4,689.9,520.4z"/>
			<path class="st3" d="M658.6,477.3c-6-5.5-12-10.1-17.2-12.5"/>
			<path class="st3" d="M662.6,481.1c15.9,15.4,30.8,35.1,30.8,35.1s8,10.7,10.4,32.1"/>
		</g>
		<g>
			<path class="st4" d="M685.1,605.8c0,0,10,0.3,15.1-5.7c5-6,8-22.9-4.5-43.6c-12.5-20.7-20.6-22-25.6-7c-5,15-8,37.2-3,46.5
				C672,605.1,685.1,605.8,685.1,605.8z"/>
			<path class="st3" d="M686.6,590.4c0.2,2.1,0.3,4.1,0.3,6.1"/>
			<path class="st3" d="M678.9,548.5c0,0,5.3,17.8,7.3,37.1"/>
		</g>
	</g>
	<g>
		<g>
			<polyline class="st3" points="37.1,483.7 268.9,483.7 268.9,10.5 			"/>
			<polyline class="st3" points="515,483.7 283.1,483.7 283.1,10.5 			"/>
		</g>
		<g>
			<polyline class="st3" points="377.8,483.7 609.6,483.7 609.6,10.5 			"/>
		</g>
		<g>
			<line class="st3" x1="562.3" y1="121.6" x2="481.3" y2="211.2"/>
			<line class="st3" x1="517.3" y1="190.9" x2="494.9" y2="215.8"/>
			<line class="st3" x1="338.7" y1="98.1" x2="295" y2="146.5"/>
			<line class="st3" x1="350.6" y1="86.4" x2="380.1" y2="53.7"/>
			<line class="st3" x1="259.5" y1="385.7" x2="231.1" y2="417"/>
			<line class="st3" x1="250" y1="343.8" x2="197.4" y2="402"/>
		</g>
	</g>
	<g>
		
			<ellipse transform="matrix(0.7071 -0.7071 0.7071 0.7071 115.1487 537.2469)" class="st3" cx="706.1" cy="129.6" rx="83.9" ry="83.9"/>
		<circle class="st3" cx="706.1" cy="129.6" r="73.2"/>
		<circle class="st3" cx="706.1" cy="129.6" r="5"/>
		<line class="st3" x1="706.1" y1="134.6" x2="706.1" y2="159.2"/>
		<line class="st3" x1="701.1" y1="129.6" x2="641.4" y2="129.6"/>
	</g>
	<g>
		<path class="st5" d="M325,332.1l-27.6-42.8c11.8-19,18.6-41.4,18.6-65.4c0-68.6-55.7-124.3-124.3-124.3
			C123,99.7,67.4,155.3,67.4,224S123,348.3,191.7,348.3c36.3,0,68.9-15.6,91.6-40.3L325,332.1z"/>
		<path class="st4" d="M327.6,321.6L300,278.8c11.8-19,18.6-41.4,18.6-65.4c0-68.6-55.7-124.3-124.3-124.3S70,144.8,70,213.5
			c0,68.6,55.7,124.3,124.3,124.3c36.3,0,68.9-15.6,91.6-40.3L327.6,321.6z"/>
	</g>
	<g>
		<g>
			<path class="st5" d="M107.1,231.4v-11.6l19.1-29.3c1.4-2.2,2.8-4.3,4.1-6.3c1.3-2,2.3-4.1,3.1-6.2c0.8-2.1,1.2-4.3,1.2-6.6
				c0-2.3-0.5-4-1.4-5.1c-0.9-1.1-2.2-1.7-3.7-1.7c-1.8,0-3.1,0.5-4.1,1.5c-1,1-1.7,2.3-2,3.9c-0.4,1.6-0.5,3.5-0.5,5.5v3.9h-15.9
				v-4.2c0-4.7,0.8-8.9,2.3-12.6c1.5-3.7,3.9-6.6,7.2-8.8c3.3-2.1,7.6-3.2,12.9-3.2c7.1,0,12.5,1.9,16.2,5.6
				c3.6,3.7,5.5,8.9,5.5,15.5c0,3.2-0.5,6.2-1.5,9c-1,2.8-2.4,5.4-4,8c-1.7,2.6-3.5,5.3-5.4,8.1l-14.6,21.7h23.3v12.9H107.1z"/>
			<path class="st5" d="M179,231.4v-17.9h-24.5v-12.1l20.8-49.7h19.1v49.6h7.4v12.2h-7.4v17.9H179z M167,201.3h12v-33.2L167,201.3z"
				/>
			<path class="st5" d="M207.8,231.4l24.4-79.7h8.7l-24.5,79.7H207.8z"/>
			<path class="st5" d="M251.5,231.4l17.3-67.2H247v-12.5h37.8V163l-17.3,68.4H251.5z"/>
		</g>
		<g>
			<path class="st5" d="M122.5,282.3c-2.2,0-4.1-0.5-5.6-1.4c-1.5-0.9-2.6-2.2-3.3-3.9c-0.7-1.7-1.2-3.6-1.4-5.9l3.4-1
				c0.2,1.7,0.5,3.2,0.9,4.6c0.4,1.4,1.1,2.5,2.1,3.3c0.9,0.8,2.3,1.2,3.9,1.2c1.8,0,3.3-0.5,4.3-1.4c1-1,1.5-2.5,1.5-4.5
				c0-1.8-0.5-3.4-1.3-4.7c-0.9-1.3-2.1-2.7-3.7-4.2l-7.3-7c-1.3-1.3-2.2-2.6-2.9-3.9c-0.6-1.3-0.9-2.8-0.9-4.4c0-2.9,0.8-5,2.5-6.6
				c1.7-1.5,4-2.3,6.8-2.3c1.5,0,2.8,0.2,3.9,0.6c1.2,0.4,2.2,1,3,1.8c0.8,0.8,1.5,1.9,2,3.2c0.5,1.3,0.8,2.9,1,4.8l-3.3,0.9
				c-0.1-1.7-0.4-3.2-0.8-4.5c-0.4-1.2-1.1-2.2-2-2.8c-0.9-0.6-2.1-1-3.7-1c-1.7,0-3.1,0.4-4.2,1.3c-1.1,0.9-1.6,2.3-1.6,4.1
				c0,1.1,0.2,2.1,0.6,3.1c0.4,0.9,1.2,1.9,2.3,3l7.3,6.9c1.6,1.5,3,3.2,4.2,5.1c1.2,1.9,1.8,4,1.8,6.3c0,2.1-0.4,3.8-1.2,5.2
				c-0.8,1.4-1.9,2.4-3.3,3.1C126,282,124.4,282.3,122.5,282.3z"/>
			<path class="st5" d="M137.1,281.8v-41.2h14.9v3h-11v15.5h9v2.9h-9v17h11.1v2.9H137.1z"/>
			<path class="st5" d="M157.5,281.8v-41.2h9.3c2.6,0,4.6,0.4,6.1,1.2c1.5,0.8,2.5,2,3.2,3.6c0.6,1.6,1,3.5,1,5.6
				c0,1.5-0.2,3-0.5,4.3c-0.3,1.4-0.9,2.5-1.7,3.5c-0.8,0.9-2,1.6-3.5,1.9l6.3,21.1h-3.8l-6.1-20.3h-6.5v20.3H157.5z M161.3,258.7
				h5.2c1.7,0,3.1-0.3,4-0.9c0.9-0.6,1.6-1.4,2-2.5c0.4-1.1,0.6-2.5,0.6-4.2c0-2.5-0.4-4.4-1.3-5.7c-0.9-1.3-2.6-1.9-5.2-1.9h-5.3
				V258.7z"/>
			<path class="st5" d="M183.6,281.8v-41.2h3.9v41.2H183.6z"/>
			<path class="st5" d="M202.1,281.8l-9.7-41.2h3.7l7.8,34.2l7.3-34.2h3.7l-9.3,41.2H202.1z"/>
			<path class="st5" d="M219.8,281.8v-41.2h3.9v41.2H219.8z"/>
			<path class="st5" d="M240.6,282.3c-2.8,0-4.9-0.6-6.4-1.7c-1.5-1.2-2.6-2.7-3.1-4.7c-0.6-2-0.9-4.1-0.9-6.5v-16.4
				c0-2.5,0.3-4.8,0.9-6.7c0.6-1.9,1.7-3.4,3.2-4.5c1.5-1.1,3.6-1.6,6.4-1.6c2.5,0,4.4,0.5,5.8,1.4c1.4,1,2.4,2.3,3,4
				c0.6,1.7,0.9,3.8,0.9,6.2v2.5h-3.7V252c0-1.8-0.1-3.3-0.4-4.6c-0.3-1.3-0.9-2.3-1.8-3c-0.9-0.7-2.2-1.1-3.9-1.1
				c-1.8,0-3.2,0.4-4.1,1.1c-0.9,0.8-1.6,1.8-1.9,3.2c-0.3,1.4-0.5,3-0.5,4.8v17.6c0,2,0.2,3.7,0.6,5.1c0.4,1.4,1.1,2.4,2,3.1
				c0.9,0.7,2.3,1,3.9,1c1.7,0,3-0.4,3.9-1.1c0.9-0.7,1.5-1.8,1.8-3.1c0.3-1.3,0.4-2.9,0.4-4.7v-2.7h3.7v2.4c0,2.4-0.3,4.5-0.8,6.4
				c-0.6,1.9-1.5,3.3-3,4.4C245.2,281.8,243.2,282.3,240.6,282.3z"/>
			<path class="st5" d="M256.4,281.8v-41.2h14.9v3h-11v15.5h9v2.9h-9v17h11.1v2.9H256.4z"/>
		</g>
	</g>
	<path class="st5" d="M549.3,471.1H639c0,0-48.5,119.4-39.4,172.8h-90.9C508.7,643.9,525.6,507.5,549.3,471.1z"/>
	<g>
		<path class="st5" d="M471.7,299.6c0,0,0.9,16.2,31,25.6c30.1,9.4,60.6,0,77.7,13.5c17.1,13.5,16.6,34.1,10.8,44.5
			c-5.8,10.3-15.3,20.7,12.6,32.8c27.8,12.1,11.2,47.6-0.4,60.6c-11.7,13-31.9,19.3-54.3,14.8c-22.5-4.5-49-58.8-77.7-87.6
			c-28.7-28.7-32.3-81.8-13.9-97C475.6,291.6,471.7,299.6,471.7,299.6z"/>
		<path class="st6" d="M467,241.5c0,0,12.4-5.4,15.6,5.1c3.2,10.5,4.1,39.1,4.1,39.1l-6.7-1.6c0,0,1.6-32.4-5.7-37.5
			c-7.3-5.1-13,6.4-13,6.4L467,241.5z"/>
		<path class="st5" d="M327.9,590.3l42.3-22.6c0,0-2.9-44.4-2.5-46.1c0.4-1.7,11-88.6,11-88.6l-29.1,86.1L327.9,590.3z"/>
		<path class="st1" d="M515.1,388.3c0,0,41.8,22.8,47.5,25.2c5.7,2.4,2.4,31.4,2.4,50.4s-28.5,179.6-28.5,179.6H325.6
			c0,0,35.6-54.6,36.6-68.9c0.9-14.3-5.2-25.7-6.2-39.4c-1-13.8,19.5-97.9,22.8-102.1c3.3-4.3,17.6-15.2,17.6-15.2l50.4-44.2
			l23.3-5.2L515.1,388.3z"/>
		<g>
			<line class="st3" x1="375.3" y1="590" x2="368.3" y2="604.5"/>
			<path class="st3" d="M382.1,548.4c0,0-10.5,7.1-5.2,10.9c5.2,3.8,7.6,11.9,7.6,11.9l-6.7,13"/>
			<path class="st3" d="M431.3,583c2.8,0.2,5.8,0.4,8.9,0.5"/>
			<path class="st3" d="M386.4,571.2c0,0,11.4,7.6,36.1,10.8"/>
		</g>
		<path class="st6" d="M358,267.6c0,0-6.4,2.5-6.4,10.8s6.7,24.5,6.7,24.5l3.8-1.3c0,0-7-16.8-6-22.9c1-6,6.7-7.6,6.7-7.6l-1.3-4.1
			L358,267.6z"/>
		<path class="st4" d="M374.4,310.1c1.6,8.4-1.2,15.9-6.3,16.9c-5.1,1-10.5-5-12.1-13.4c-1.6-8.4,1.2-15.9,6.3-16.9
			C367.3,295.8,372.8,301.8,374.4,310.1z"/>
		<path class="st5" d="M389.8,307.4c3.2,10.7-0.5,21.2-8.3,23.5c-7.7,2.3-16.6-4.5-19.8-15.2c-3.2-10.7,0.5-21.2,8.3-23.5
			C377.8,289.9,386.7,296.7,389.8,307.4z"/>
		<path class="st4" d="M418.5,365.7l7.5,24.4l-24.7,31.2l-4.1,24.1c0,0-4.1,68.7-1.8,79.2c2.3,10.6,2.3,13.5,2.3,13.5
			s51.1-59.3,76.3-95.7c25.2-36.4,31.1-58.7,31.1-58.7l-24.7-13.5l-11.7-54.6L418.5,365.7z"/>
		<polygon class="st5" points="457.5,342 426,390.1 417.3,361.8 		"/>
		<path class="st4" d="M397.4,444l-0.2,1.4c0,0-4.1,68.7-1.8,79.2c2.3,10.6,2.3,13.5,2.3,13.5s51.1-59.3,76.3-95.7
			c2-2.9,3.8-5.6,5.6-8.3C448.1,445,415.8,445.1,397.4,444z"/>
		<g>
			<path class="st4" d="M385,215.8c0,0-23.5,14.3-26.1,35.9c-2.5,21.6,6.4,44.8,9.9,54c3.5,9.2,15.6,45.1,21.9,52.1
				c6.4,7,27,17.5,30.5,19.4c3.5,1.9,9.9,1.3,15.3-2.5c5.4-3.8,27.7-30.8,31.1-37.2c3.5-6.4,4.1-20.3,4.1-20.3s-0.6-28-1.9-46.1
				c-1.3-18.1-0.3-35.6-15.3-50.9C439.7,205,399.7,204.6,385,215.8z"/>
			<path class="st5" d="M469.9,271.1c-1.3-18.1-0.3-35.6-15.3-50.9c-14.9-15.3-55-15.6-69.6-4.4c0,0-23.5,14.3-26.1,35.9
				c-1.5,12.6,0.9,25.6,3.9,36.2c5.4-3.3,23.7-14.5,44.1-28.9c24.5-17.2,32.4-43.9,32.4-43.9s2.9-1.6,2.2,1.9
				c-0.6,3.5-10.2,24.2-13.7,27.3c-3.5,3.2-3.5,3.2-3.5,3.2s2.9-0.6,15.9,14.9c13,15.6,20.3,21.9,24.2,23.8c1.2,0.6,3.5,1,6.3,1.2
				C470.6,281.8,470.2,276.1,469.9,271.1z"/>
			<path class="st5" d="M430.8,304.8c0.4,2.3-0.4,4.4-1.9,4.7s-3-1.4-3.4-3.8c-0.4-2.3,0.4-4.4,1.9-4.7
				C428.8,300.7,430.4,302.4,430.8,304.8z"/>
			<path class="st5" d="M395.2,309.8c0.4,2.3-0.4,4.4-1.9,4.7c-1.5,0.3-3-1.4-3.4-3.8c-0.4-2.3,0.4-4.4,1.9-4.7
				C393.2,305.8,394.8,307.5,395.2,309.8z"/>
			<path class="st3" d="M416.2,290.5c0,0,10.5-8.3,20-1.6"/>
			<path class="st3" d="M394.9,294.9c0,0-12.4-6-21,4.8"/>
			<path class="st3" d="M397.1,295.2c0,0,8.6,4.1,9.2,12.1"/>
			<path class="st3" d="M406.6,329.2c0,0,3.5,2.5,9.5,0.6"/>
			<path class="st3" d="M404.1,342.6c0,0,9.5,0,20.7-4.8c11.1-4.8,15.6-11.4,15.6-11.4"/>
			<path class="st3" d="M409.5,342.3c0,0,3.5,3.5,9.2,3.5c5.7,0,10.8-10.2,10.8-10.2S414.9,341.9,409.5,342.3z"/>
		</g>
		<ellipse class="st5" cx="475.6" cy="298.6" rx="14.6" ry="20.2"/>
		<ellipse class="st4" cx="481.8" cy="295.1" rx="9.4" ry="15.4"/>
		<path class="st7" d="M368.1,320.1c0,0,0.1,33,8.7,35.9c8.6,2.9,32.1-2.9,32.1-2.9"/>
		<path class="st5" d="M420.9,353c0,2.5-3.1,4.6-7,4.6s-7-2.1-7-4.6c0-2.5,3.1-4.6,7-4.6S420.9,350.4,420.9,353z"/>
		<path class="st1" d="M422.9,391.7c0,0-10,17.6-17.1,69.8s-2.4,62.7-2.4,62.7l-10,6.2c0,0-20.9-2.4-13.8-51.8
			c7.1-49.4,10.9-57.5,10.9-57.5L422.9,391.7z"/>
		<path class="st1" d="M486.6,373.6c0,0-22.8,54.2-46.6,87.9c-23.8,33.7-56.1,82.2-56.1,82.2s17.1-8.1,53.2-35.2
			c36.1-27.1,72.7-89.3,76.5-95.5c3.8-6.2,9.5-20.4,9.5-20.4L486.6,373.6z"/>
		<g>
			<path class="st4" d="M289.3,614.2c0,0-6.8,4.4-17.5,8.7s-11.7,3.6-8.3,7.3c3.4,3.7,21.4-2.9,26.2-4.9c4.9-1.9,14.1-4.9,14.1-4.9
				s11.2,6.3,18,8.3s15.1-1,15.1-1s0.5-7.8-5.3-12.1c-5.8-4.4-18.5-14.6-22.8-14.1S289.3,614.2,289.3,614.2z"/>
			<path class="st4" d="M286.4,602.6c0,0-5.8-1.5-9.7,1.5c-3.9,2.9-8.3,12.1-8.7,14.6c-0.5,2.4,0.5,3.9,4.4,0.5
				c3.9-3.4,10.7-8.3,10.7-8.3l5.8-1.9L286.4,602.6z"/>
			<path class="st4" d="M301.4,598.2c0,0-11.7-3.9-14.1-0.5c-2.4,3.4-10.7,22.8-8.3,24.3c2.4,1.5,5.8-1.5,10.2-7.8
				c4.4-6.3,6.8-9.7,6.8-9.7l5.8-1L301.4,598.2z"/>
			<path class="st4" d="M322.2,602.6c0,0-15.2-11.9-19-9c-3.8,2.9-16.2,21.4-17.6,25.2c-1.4,3.8,5.2,1.9,10.5-2.8
				c5.2-4.8,11.4-10,11.4-10l11.9,6.2L322.2,602.6z"/>
			<path class="st4" d="M376.9,611.6c0,0-20-0.9-28-3.8c-8.1-2.9-24.2-9-29-8.6c-4.7,0.5-22.8,18.1-26.6,21.9
				c-3.8,3.8-3.4,4.8,0.4,5.3c3.8,0.5,12.9-5.8,17.2-9.1c4.3-3.3,8.5-5.2,8.5-5.2s6.7,9.5,11.4,13.8c4.8,4.3,16.2,7.6,20.4,7.1
				c4.3-0.5,8.1-1.4,8.1-1.4l16.2-0.5L376.9,611.6z"/>
		</g>
		<path class="st1" d="M515.6,474.3c0,0-17.6,20.4-16.6,27.6s1.4,14.3,1.4,14.3l-12.8,77.4c0,0-10.9-5.2-10.9-0.9c0,4.3,0,4.3,0,4.3
			L374,607.3l-0.9,36.1l163.4,0.5c0,0,8.1-9,9-12.4c0.9-3.3,19-60.8,23.8-121.1c4.8-60.3,2.4-87.4,0-92.2
			c-2.4-4.8-30.4-13.8-30.4-13.8"/>
		<path class="st4" d="M491.3,593.1c0,0,15.2,10,24.2,12.4"/>
		<g>
			<path class="st4" d="M348.9,496.7l11.7-37.6c0,0,7.4-7.1,12.4-15.6c5-8.5,5-24.4,4.2-27.2c-0.7-2.8,10.3-15.6,13.4-20.2
				c3.2-4.6,5-12.7,0.7-18.7c-4.2-6-6.4,3.9-9.2,8.5c-2.8,4.6-12.7,9.2-12.7,9.2l-10.6,8.5c0,0-17.3,15.2-18.4,17.3
				c-1.1,2.1-3.2,8.8-3.2,8.8l1.4,20.5l-9.2,35.7L348.9,496.7z"/>
			<path class="st3" d="M351.7,391.2c0,0,8.5-13.4,11-17.7c2.5-4.2,6.4-21.2,8.8-20.2c2.5,1.1,5,6.7,4.2,14.1
				c-0.7,7.4-9.6,24.4-9.6,24.4L351.7,391.2z"/>
			<path class="st4" d="M331.2,475.4l7.4-25.1l-3.2-40.3l9.9-19.1l27.2-3.5c0,0,16.6,8.8,18,8.8c1.4,0,0,3.9-3.2,4.6
				c-3.2,0.7-9.2-1.1-9.2-1.1l10.3,6.7c0,0-0.7,3.2-3.2,3.9c-2.5,0.7-7.4,0.7-7.4,0.7s8.8,5.7,6.7,6.7c-2.1,1.1-4.6,1.4-6.7,1.4
				c-2.1,0-6.7,0-6.7,0l-5.3-0.7l-8.1,3.2c0,0,5.7,14.5,5.3,21.6c-0.4,7.1-9.2,11.7-9.2,11.7"/>
			<path class="st3" d="M378.3,399.7c0,0-5.7-4.6-8.8-4.6s-22.6,3.5-22.6,3.5"/>
			<path class="st3" d="M377.9,411c0,0-9.2-5-12-5c-2.8,0-25.1,5.7-25.1,5.7"/>
		</g>
		<path class="st1" d="M331.7,467.5l28.7,19.4c0,0-12.8,68.7-14,74.5c-1.3,5.9-10.5,21.4-15.1,26c-4.6,4.6-10.1,3.8-22.6,0.4
			c-12.6-3.4-23.5-13.4-23.1-26.4C286,548.4,331.7,467.5,331.7,467.5z"/>
	</g>
	<g>
		<rect x="174.9" y="634" class="st4" width="8.3" height="2.6"/>
		<rect x="186.4" y="634" class="st4" width="8.3" height="2.6"/>
		<rect x="198" y="634" class="st4" width="8.3" height="2.6"/>
		<rect x="209.6" y="634" class="st4" width="8.3" height="2.6"/>
		<rect x="221.1" y="634" class="st4" width="8.3" height="2.6"/>
		<rect x="232.7" y="634" class="st4" width="8.3" height="2.6"/>
		<rect x="244.2" y="634" class="st4" width="8.3" height="2.6"/>
		<rect x="255.8" y="634" class="st4" width="8.3" height="2.6"/>
		<rect x="267.4" y="634" class="st4" width="8.3" height="2.6"/>
		<rect x="278.9" y="634" class="st4" width="8.3" height="2.6"/>
		<rect x="290.5" y="634" class="st4" width="8.3" height="2.6"/>
		<rect x="302" y="634" class="st4" width="8.3" height="2.6"/>
		<rect x="313.6" y="634" class="st4" width="8.3" height="2.6"/>
		<rect x="325.1" y="634" class="st4" width="8.3" height="2.6"/>
		<rect x="336.7" y="634" class="st4" width="8.3" height="2.6"/>
		<rect x="348.3" y="634" class="st4" width="8.3" height="2.6"/>
		<rect x="170.1" y="636" class="st4" width="206.7" height="7.3"/>
		<rect x="297.5" y="636" class="st4" width="79.2" height="7.3"/>
	</g>
	<g>
		<g>
			<polygon class="st8" points="234.6,572.3 72.1,572.3 39.5,399.5 201.9,399.5 			"/>
			<polygon class="st8" points="229.6,567.9 72,567.9 41,403.9 198.6,403.9 			"/>
			<polygon class="st8" points="199.3,554.9 82.1,554.9 59.1,432.9 176.2,432.9 			"/>
			<line class="st3" x1="59.1" y1="432.9" x2="41" y2="403.9"/>
			<line class="st8" x1="176.2" y1="432.9" x2="198.6" y2="403.9"/>
			<line class="st8" x1="199.3" y1="554.9" x2="229.6" y2="567.9"/>
			<line class="st4" x1="82.1" y1="554.9" x2="72" y2="567.9"/>
		</g>
		<polygon class="st8" points="129.7,518.4 103.1,518.4 120,503.2 146.7,503.2 		"/>
		<rect x="120.6" y="634.2" class="st8" width="97.6" height="9.7"/>
		<polygon class="st8" points="162.5,643.9 135.8,643.9 103.1,606.7 129.7,606.7 		"/>
		<rect x="103.1" y="519" class="st8" width="26.7" height="87.3"/>
	</g>
	<path class="st4" d="M520.4,627.3c0,0,4.7,10,16.6,16.2"/>
	<line class="st3" x1="19" y1="643.9" x2="783.1" y2="643.9"/>
</g>
</svg>
